<svg width="80" height="80" viewBox="0 0 80 80" fill="none" xmlns="http://www.w3.org/2000/svg">
<g clip-path="url(#clip0_66_359)">
<path d="M80 40C80 17.9088 62.0913 0 40 0C17.9087 0 0 17.9088 0 40C0 59.965 14.6275 76.5135 33.75 79.5141V51.5625H23.5938V40H33.75V31.1875C33.75 21.1625 39.7219 15.625 48.8588 15.625C53.235 15.625 57.8125 16.4063 57.8125 16.4063V26.25H52.7687C47.7997 26.25 46.25 29.3334 46.25 32.4969V40H57.3438L55.5703 51.5625H46.25V79.5141C65.3725 76.5135 80 59.9653 80 40Z" fill="#1877F2"/>
<path d="M55.5703 51.5625L57.3438 40H46.25V32.4969C46.25 29.3331 47.7997 26.25 52.7687 26.25H57.8125V16.4062C57.8125 16.4062 53.235 15.625 48.8584 15.625C39.7219 15.625 33.75 21.1625 33.75 31.1875V40H23.5938V51.5625H33.75V79.5141C35.8176 79.8381 37.9072 80.0005 40 80C42.0928 80.0006 44.1825 79.8382 46.25 79.5141V51.5625H55.5703Z" fill="white"/>
</g>
<defs>
<clipPath id="clip0_66_359">
<rect width="80" height="80" fill="white"/>
</clipPath>
</defs>
</svg>
