<svg width="26" height="27" viewBox="0 0 26 27" fill="none" xmlns="http://www.w3.org/2000/svg">
<path d="M12.8161 0.395508C9.35798 0.395508 8.92771 0.395508 7.55723 0.476185C6.20268 0.540726 5.2784 0.750486 4.46567 1.07319C3.62107 1.3959 2.84022 1.91223 2.20279 2.55765C1.54942 3.20307 1.05541 3.97756 0.736691 4.84887C0.417974 5.67178 0.210804 6.60763 0.147061 7.97914C0.0833174 9.36678 0.0673828 9.80244 0.0673828 13.3038C0.0673828 16.8052 0.0673816 17.2409 0.147061 18.6285C0.210804 20 0.417974 20.9359 0.736691 21.7588C1.05541 22.6139 1.50161 23.3239 2.20279 24.05C2.90396 24.7599 3.62107 25.2117 4.46567 25.5344C5.2784 25.8571 6.20268 26.0669 7.55723 26.1315C8.91177 26.196 9.35798 26.2121 12.8161 26.2121C16.2741 26.2121 16.7044 26.196 18.0749 26.1315C19.4294 26.0669 20.3537 25.8571 21.1664 25.5344C22.011 25.2117 22.7919 24.6954 23.4293 24.05C24.1305 23.34 24.5767 22.6139 24.8954 21.7588C25.2141 20.9359 25.4213 20 25.485 18.6285C25.5488 17.257 25.5647 16.8213 25.5647 13.3038C25.5647 9.7863 25.5488 9.36678 25.485 7.97914C25.4213 6.60763 25.1982 5.67178 24.8954 4.84887C24.5767 3.9937 24.0668 3.20307 23.4293 2.55765C22.7919 1.8961 22.027 1.3959 21.1664 1.07319C20.3537 0.750486 19.4294 0.540726 18.0749 0.476185C16.7203 0.411643 16.2901 0.395508 12.8161 0.395508ZM11.6687 2.719H12.8161C16.2263 2.719 16.6247 2.719 17.9633 2.79968C19.2063 2.84809 19.8756 3.07398 20.3378 3.23534C20.9274 3.46123 21.3577 3.75167 21.8039 4.20346C22.2501 4.65525 22.521 5.09091 22.76 5.68791C22.9353 6.13971 23.1425 6.81739 23.1903 8.09209C23.254 9.44746 23.27 9.86698 23.27 13.3038C23.27 16.7407 23.27 17.1602 23.1903 18.5155C23.1425 19.7741 22.9194 20.4518 22.76 20.9036C22.5528 21.4683 22.2341 21.9685 21.8039 22.388C21.3577 22.8398 20.9274 23.1141 20.3378 23.3562C19.8916 23.5337 19.2223 23.7434 17.9793 23.808C16.6407 23.8725 16.2263 23.8886 12.832 23.8886C9.43765 23.8886 9.02332 23.8886 7.68471 23.808C6.44172 23.7434 5.77241 23.5337 5.31027 23.3562C4.75252 23.1464 4.25851 22.8237 3.84417 22.388C3.41391 21.9685 3.09519 21.4683 2.88803 20.9036C2.71273 20.4518 2.50557 19.7741 2.45776 18.5155C2.39401 17.1602 2.37808 16.7407 2.37808 13.3038C2.37808 9.86698 2.37808 9.44746 2.45776 8.09209C2.5215 6.83353 2.72867 6.15584 2.90396 5.68791C3.12706 5.09091 3.41391 4.65525 3.86011 4.20346C4.30632 3.75167 4.73658 3.47737 5.32621 3.23534C5.77241 3.05785 6.44172 2.84809 7.70065 2.78355C8.8799 2.73514 9.32611 2.719 11.7165 2.719H11.6687ZM19.6207 4.86501C18.7761 4.86501 18.0908 5.55883 18.0908 6.41401C18.0908 7.26918 18.7761 7.963 19.6207 7.963C20.4653 7.963 21.1505 7.26918 21.1505 6.41401C21.1505 5.55883 20.4653 4.86501 19.6207 4.86501ZM12.8161 6.67217C9.19862 6.60763 6.21862 9.54427 6.17081 13.1909C6.10707 16.8536 9.00739 19.8709 12.6089 19.9193C12.6726 19.9193 12.7523 19.9193 12.8161 19.9193C16.4335 19.8548 19.3179 16.8536 19.2541 13.1909C19.2063 9.60881 16.3379 6.72058 12.8161 6.67217ZM12.8161 8.99567C15.1586 8.99567 17.0709 10.9158 17.0709 13.3038C17.0709 15.6919 15.1746 17.612 12.8161 17.612C10.4735 17.612 8.56119 15.6919 8.56119 13.3038C8.56119 10.9158 10.4575 8.99567 12.8161 8.99567Z" fill="#D8B4A0"/>
</svg>
