<svg width="60" height="59" viewBox="0 0 60 59" fill="none" xmlns="http://www.w3.org/2000/svg">
<g clip-path="url(#clip0_14_19)">
<path d="M30.1985 58.9958C13.9942 59.3224 0.265716 45.1706 0.742528 28.3874C1.14965 14.1732 13.6788 -0.191404 30.6643 -0.000560566C46.3258 0.179273 59.9186 13.52 59.7279 30.105C59.5555 45.0972 46.7109 59.249 30.1948 58.9958H30.1985ZM13.147 7.85705C13.169 8.04056 13.1873 8.22406 13.2093 8.40389C15.0579 8.40389 16.9065 8.35251 18.7514 8.41123C29.3879 8.76356 38.6271 19.0104 38.5831 29.7453C38.5794 31.0078 37.8935 31.4703 36.7528 30.9014C36.287 30.6665 35.8836 30.2371 35.5571 29.8151C34.0497 27.8589 32.6046 25.8514 31.0641 23.9209C30.7964 23.5833 30.0958 23.2567 29.7437 23.3741C26.5601 24.4421 23.8202 26.1267 22.6282 29.4958C21.1684 33.6246 21.4398 37.7718 22.7749 41.8823C23.6515 44.5834 25.5001 46.3267 28.2472 46.9616C34.3321 48.3673 36.6942 47.2883 39.7421 42.9062C40.2629 42.1575 40.7911 41.3905 41.1652 40.561C42.8487 36.8065 44.4332 33.008 46.1387 29.2609C48.0753 25.011 50.254 20.9408 54.9781 19.0801C55.1871 18.9957 55.3852 18.5039 55.3449 18.2397C55.2752 17.8029 55.0331 17.3845 54.8204 16.9845C48.4824 5.00174 35.4581 -0.646492 22.4155 3.01256C19.0081 3.96678 15.8795 5.56693 13.147 7.85705ZM14.394 51.7254C14.3684 51.8722 14.339 52.0153 14.3133 52.1621C14.7205 52.441 15.1092 52.7493 15.5347 52.9989C23.7616 57.8801 32.3112 58.5627 41.1615 54.9037C53.7604 49.6995 60.6815 35.1734 56.845 22.152C56.5222 21.0583 56.0454 21.0253 55.1761 21.3849C53.2285 22.1887 51.7137 23.576 50.7785 25.3706C48.7758 29.2132 47.0226 33.1842 45.1081 37.0745C43.839 39.6508 42.6176 42.2749 41.0808 44.6898C39.4523 47.2552 37.204 49.3251 33.9983 49.6151C32.1608 49.7802 30.2792 49.4059 28.416 49.3105C27.8951 49.2848 27.2863 49.2297 26.8535 49.4499C23.5965 51.1051 20.1451 51.8061 16.514 51.7254C15.8061 51.7107 15.0982 51.7254 14.3904 51.7254H14.394ZM36.221 27.0699C36.3274 26.6918 36.3824 26.6038 36.3714 26.5193C36.3384 26.2478 36.2944 25.9762 36.232 25.7119C35.051 20.6215 32.1901 16.6579 28.0382 13.5897C24.1613 10.7234 19.705 10.0334 15.0249 10.2096C13.2313 10.2756 13.2203 10.2316 13.2203 12.063C13.2203 23.4585 13.2203 34.8541 13.2203 46.246C13.2203 47.0681 13.2423 47.8938 13.2203 48.7159C13.202 49.4646 13.5284 49.8059 14.2803 49.7876C16.0629 49.7435 17.8638 49.861 19.6206 49.6444C21.3408 49.4316 23.017 48.8847 24.7298 48.4774C23.4425 46.8589 22.0744 45.6587 21.3592 44.154C19.1218 39.4306 18.8247 34.4063 20.2845 29.4297C21.7003 24.6036 25.5698 22.3171 30.0921 20.8895C30.9871 20.6069 31.5152 20.7647 32.0581 21.5244C33.3528 23.3374 34.7282 25.0954 36.2137 27.0625L36.221 27.0699ZM11.2287 9.7031C6.34324 13.6558 1.83186 22.3318 2.64611 31.4703C3.26596 38.4471 5.89944 44.4293 11.2287 49.5931V9.7031Z" fill="#D8B4A0"/>
</g>
<defs>
<clipPath id="clip0_14_19">
<rect width="59" height="59" fill="white" transform="translate(0.731445)"/>
</clipPath>
</defs>
</svg>
