<svg width="34" height="29" viewBox="0 0 34 29" fill="none" xmlns="http://www.w3.org/2000/svg">
<g clip-path="url(#clip0_27_79)">
<path fill-rule="evenodd" clip-rule="evenodd" d="M0.731445 27.3876C0.731445 26.5001 1.39267 25.7752 2.21174 25.7752H31.792C32.6068 25.7752 33.2723 26.4954 33.2723 27.3876C33.2723 28.2797 32.611 29 31.792 29H2.21174C1.39694 29 0.731445 28.2797 0.731445 27.3876ZM0.731445 14.4977C0.731445 13.6101 1.39267 12.8853 2.21174 12.8853H31.792C32.6068 12.8853 33.2723 13.6055 33.2723 14.4977C33.2723 15.3898 32.611 16.1101 31.792 16.1101H2.21174C1.39694 16.1101 0.731445 15.3898 0.731445 14.4977ZM0.731445 1.6124C0.731445 0.720236 1.39267 0 2.21174 0H31.792C32.6068 0 33.2723 0.720236 33.2723 1.6124C33.2723 2.50456 32.611 3.2248 31.792 3.2248H2.21174C1.39694 3.2248 0.731445 2.50456 0.731445 1.6124Z" fill="#D8B4A0"/>
</g>
<defs>
<clipPath id="clip0_27_79">
<rect width="32.5366" height="29" fill="white" transform="translate(0.731445)"/>
</clipPath>
</defs>
</svg>
